# xmcd
#
# Track frame offsets: 
#        150
#        14861
#        25932
#        36642
#        47790
#        58161
#        67274
#        81603
#        94973
#        110284
#        124781
#        135389
#        148845
#        159633
#        173245
#        186220
#        194646
#        211509
#        229632
#        246358
#
# Disc length: 4448 seconds
#
# Revision: 1
# Processed by: cddbd v1.5.2PL0 Copyright (c) Steve Scherf et al.
# Submitted via: ExactAudioCopy v0.99pb4
#
DISCID=36115e14
DTITLE=Otis Redding - Remember Me
DYEAR=1992
DGENRE=Soul
TTITLE0=Trick Or Treat
TTITLE1=Leaving By The Pound (Take1)
TTITLE2=There Goes My Baby
TTITLE3=Remember Me
TTITLE4=Send Me Some Lovin'
TTITLE5=She's Alright
TTITLE6=Cupid
TTITLE7=The Boston Monkey
TTITLE8=Dont' Be Afraid Of Love
TTITLE9=Little Ol' Me
TTITLE10=Pounds And Hundreds (Lbs and 100s)
TTITLE11=You Got Good Lovin'
TTITLE12=Gone Again
TTITLE13=I'm Coming Home
TTITLE14=(Sittin' On) The Dock Of The Bay (Take1)
TTITLE15=Respect (Alternate)
TTITLE16=I've Got Dreams To Remember
TTITLE17=Try A Little Tenderness (Take 1)
TTITLE18=Stay In School
TTITLE19=Multimedia Track Incl.:Video, Biography And Pictures
EXTD=Otis Redding  'Remember Me'\nIncl. multimedia-track with video, b
EXTD=iography and pictures\n24 BIT Remastered\nLabel: Fantasy, Inc. - 
EXTD=Stax Records\nSCD24 8572-2
EXTT0=
EXTT1=
EXTT2=
EXTT3=
EXTT4=
EXTT5=
EXTT6=
EXTT7=
EXTT8=
EXTT9=
EXTT10=
EXTT11=
EXTT12=
EXTT13=
EXTT14=
EXTT15=
EXTT16=
EXTT17=
EXTT18=
EXTT19=
PLAYORDER=
